<svg xmlns="http://www.w3.org/2000/svg" width="32" height="32" viewBox="0 0 32 32" role="img" aria-label="Cursor arrastrar Ábacos">
  <path d="M16 3 22 9h-3.2v5.2H24V11l6 5-6 5v-3.2h-5.2V23H22l-6 6-6-6h3.2v-5.2H8V21l-6-5 6-5v3.2h5.2V9H10l6-6z" fill="#fff" stroke="#fff" stroke-width="2.2" stroke-linejoin="round"/>
  <path d="M16 3 22 9h-3.2v5.2H24V11l6 5-6 5v-3.2h-5.2V23H22l-6 6-6-6h3.2v-5.2H8V21l-6-5 6-5v3.2h5.2V9H10l6-6z" fill="#050505" stroke="#050505" stroke-width=".8" stroke-linejoin="round"/>
  <line x1="9.8" y1="16" x2="22.2" y2="16" stroke="#d8b85f" stroke-width=".8" stroke-linecap="round"/>
  <circle cx="11.3" cy="16" r="1.2" fill="#1f5ea8"/>
  <circle cx="14.4" cy="16" r="1.2" fill="#4c9a4b"/>
  <circle cx="17.6" cy="16" r="1.2" fill="#b20d22"/>
  <circle cx="20.7" cy="16" r="1.2" fill="#e6b72e"/>
  <path d="M18.2 1.8c1.2 0 2 .6 2 1.4 0 1.1-1.8 3.1-4 3.1h-1.5l1.9-3.5c.3-.6.8-1 1.6-1z" fill="#c5162e"/>
</svg>
