<svg xmlns="http://www.w3.org/2000/svg" width="32" height="32" viewBox="0 0 32 32" role="img" aria-label="Cursor normal Ábacos">
  <path d="M5 3v25l6.3-7.1 4 8.1 4.1-2-4.2-7.9H25L5 3z" fill="#fff" stroke="#fff" stroke-width="2.2" stroke-linejoin="round"/>
  <path d="M5 3v25l6.3-7.1 4 8.1 4.1-2-4.2-7.9H25L5 3z" fill="#050505" stroke="#050505" stroke-width=".9" stroke-linejoin="round"/>
  <path d="M8.2 9.4 21.6 17" stroke="#d8b85f" stroke-width=".65" stroke-linecap="round" opacity=".92"/>
  <path d="M8.1 13.1 17.8 18.5" stroke="#d8b85f" stroke-width=".65" stroke-linecap="round" opacity=".92"/>
  <circle cx="10.4" cy="10.6" r="1.25" fill="#1f5ea8"/>
  <circle cx="13.2" cy="12.2" r="1.25" fill="#4c9a4b"/>
  <circle cx="16" cy="13.8" r="1.25" fill="#b20d22"/>
  <circle cx="18.8" cy="15.4" r="1.25" fill="#e6b72e"/>
  <path d="M9.6 2.8c1.5 0 2.4.7 2.4 1.7 0 1.3-2.2 3.8-4.8 3.8H5.4L7.7 4c.4-.7 1-1.2 1.9-1.2z" fill="#c5162e"/>
</svg>
