<svg xmlns="http://www.w3.org/2000/svg" width="32" height="32" viewBox="0 0 32 32" role="img" aria-label="Cursor espera Ábacos">
  <circle cx="16" cy="16" r="11.5" fill="#fff" stroke="#fff" stroke-width="2.2"/>
  <circle cx="16" cy="16" r="11.5" fill="none" stroke="#8f8f8f" stroke-width="1" opacity=".86"/>
  <path d="M16 7.2c4.8 0 8.8 3.9 8.8 8.8" fill="none" stroke="#050505" stroke-width="1.7" stroke-linecap="round"/>
  <path d="M11.8 22.8 16 12.5l4.3 10.3" fill="none" stroke="#050505" stroke-width="2" stroke-linecap="round" stroke-linejoin="round"/>
  <path d="M13.6 19h4.8" stroke="#050505" stroke-width="1.7" stroke-linecap="round"/>
  <circle cx="16" cy="4.1" r="1.8" fill="#1f5ea8"/>
  <circle cx="23.6" cy="7.7" r="1.8" fill="#e6b72e"/>
  <circle cx="27.7" cy="16" r="1.8" fill="#b20d22"/>
  <circle cx="22.9" cy="24.4" r="1.8" fill="#e6b72e"/>
  <circle cx="9.1" cy="24.4" r="1.8" fill="#bfc3c6"/>
  <circle cx="4.3" cy="16" r="1.8" fill="#1f5ea8"/>
  <circle cx="8.4" cy="7.7" r="1.8" fill="#4c9a4b"/>
  <path d="M18.3 2c1.3 0 2.1.6 2.1 1.4 0 1.1-1.8 3.2-4.1 3.2h-1.6l2-3.6c.3-.7.8-1 1.6-1z" fill="#c5162e"/>
</svg>
