<svg xmlns="http://www.w3.org/2000/svg" width="32" height="32" viewBox="0 0 32 32" role="img" aria-label="Cursor arrastrando Ábacos">
  <path d="M16 3 21.7 8.7h-3.1v5H24v-3.1L30 16l-6 5.4v-3.1h-5.4v5h3.1L16 29l-5.7-5.7h3.1v-5H8v3.1L2 16l6-5.4v3.1h5.4v-5h-3.1L16 3z" fill="#fff" stroke="#fff" stroke-width="2.2" stroke-linejoin="round"/>
  <path d="M16 3 21.7 8.7h-3.1v5H24v-3.1L30 16l-6 5.4v-3.1h-5.4v5h3.1L16 29l-5.7-5.7h3.1v-5H8v3.1L2 16l6-5.4v3.1h5.4v-5h-3.1L16 3z" fill="#1e1e1e" stroke="#050505" stroke-width=".85" stroke-linejoin="round"/>
  <circle cx="16" cy="16" r="5.4" fill="#f7f7f5" stroke="#050505" stroke-width=".9"/>
  <line x1="10.4" y1="16" x2="21.6" y2="16" stroke="#d8b85f" stroke-width=".8" stroke-linecap="round"/>
  <circle cx="12" cy="16" r="1.2" fill="#1f5ea8"/>
  <circle cx="14.7" cy="16" r="1.2" fill="#4c9a4b"/>
  <circle cx="17.4" cy="16" r="1.2" fill="#b20d22"/>
  <circle cx="20.1" cy="16" r="1.2" fill="#e6b72e"/>
  <path d="M18.2 1.8c1.2 0 2 .6 2 1.4 0 1.1-1.8 3.1-4 3.1h-1.5l1.9-3.5c.3-.6.8-1 1.6-1z" fill="#c5162e"/>
</svg>
